<svg width="22" height="25" viewBox="0 0 22 25" fill="none" xmlns="http://www.w3.org/2000/svg">
<path d="M7.33333 11.2777H4.88889V13.7222H7.33333V11.2777ZM12.2222 11.2777H9.77778V13.7222H12.2222V11.2777ZM17.1111 11.2777H14.6667V13.7222H17.1111V11.2777ZM19.5556 2.72215H18.3333V0.27771H15.8889V2.72215H6.11111V0.27771H3.66667V2.72215H2.44444C1.08778 2.72215 0.0122222 3.82215 0.0122222 5.1666L0 22.2777C0 23.6222 1.08778 24.7222 2.44444 24.7222H19.5556C20.9 24.7222 22 23.6222 22 22.2777V5.1666C22 3.82215 20.9 2.72215 19.5556 2.72215ZM19.5556 22.2777H2.44444V8.83327H19.5556V22.2777Z" fill="#3258E8"/>
</svg>
