<svg width="29" height="28" viewBox="0 0 29 28" fill="none" xmlns="http://www.w3.org/2000/svg">
<path d="M6.527 13.79L24.5837 19.021C25.5949 19.3139 26.9332 18.9675 26.7831 17.9255C26.523 16.1202 24.5334 15.3271 22.8023 14.7526L18.246 13.2403L15.7556 5.25097L13.1025 2.74989L13.092 11.5161L7.93761 10.1049L5.91133 6.00078L3.88095 5.3405L3.4075 9.28222C2.15775 9.10709 2.46884 10.278 2.78061 10.8853L6.527 13.79Z" fill="#3258E8"/>
<path d="M1.00003 25.9375C1.00003 25.0746 1.69958 24.375 2.56253 24.375H26.4375C27.3005 24.375 28 25.0746 28 25.9375C28 26.8004 27.3005 27.5 26.4375 27.5H2.56253C1.69958 27.5 1.00003 26.8004 1.00003 25.9375Z" fill="#3258E8"/>
</svg>
