<svg width="14" height="20" viewBox="0 0 14 20" fill="none" xmlns="http://www.w3.org/2000/svg">
<path d="M7.00005 -9.15527e-05C3.13005 -9.15527e-05 4.57764e-05 3.12991 4.57764e-05 6.99991C4.57764e-05 12.2499 7.00005 19.9999 7.00005 19.9999C7.00005 19.9999 14 12.2499 14 6.99991C14 3.12991 10.87 -9.15527e-05 7.00005 -9.15527e-05ZM7.00005 9.49991C5.62005 9.49991 4.50005 8.37991 4.50005 6.99991C4.50005 5.61991 5.62005 4.49991 7.00005 4.49991C8.38005 4.49991 9.50005 5.61991 9.50005 6.99991C9.50005 8.37991 8.38005 9.49991 7.00005 9.49991Z" fill="#848484"/>
</svg>
