<svg width="27" height="22" viewBox="0 0 27 22" fill="none" xmlns="http://www.w3.org/2000/svg">
<path d="M8.24042 13.0438L24.9676 4.46424C25.9043 3.9838 26.6406 2.81368 25.8166 2.15847C24.389 1.02322 22.3972 1.81092 20.7435 2.58029L16.3907 4.60525L9.09836 0.5H5.45218L11.4577 6.88594L6.73906 9.39471L2.44944 7.79822L0.519104 8.7105L2.87839 11.9035C1.84888 12.6333 2.87839 13.2719 3.52183 13.5L8.24042 13.0438Z" fill="#3258E8"/>
<path d="M0 19.9376C0 19.0747 0.699553 18.3751 1.5625 18.3751H25.4375C26.3004 18.3751 27 19.0747 27 19.9376C27 20.8006 26.3004 21.5001 25.4375 21.5001H1.5625C0.699553 21.5001 0 20.8006 0 19.9376Z" fill="#3258E8"/>
</svg>
